<svg xmlns="http://www.w3.org/2000/svg" xmlns:xlink="http://www.w3.org/1999/xlink" width="500" zoomAndPan="magnify" viewBox="0 0 375 374.999991" height="500" preserveAspectRatio="xMidYMid meet" version="1.0"><defs><g/><clipPath id="4c1912ddd6"><path d="M 103.992188 104.445312 L 271.242188 104.445312 L 271.242188 271.695312 L 103.992188 271.695312 Z M 103.992188 104.445312 " clip-rule="nonzero"/></clipPath><clipPath id="80f0aba8c3"><path d="M 113.929688 113.929688 L 261.984375 113.929688 L 261.984375 261.984375 L 113.929688 261.984375 Z M 113.929688 113.929688 " clip-rule="nonzero"/></clipPath><clipPath id="937af00359"><path d="M 187.957031 113.929688 C 147.070312 113.929688 113.929688 147.070312 113.929688 187.957031 C 113.929688 228.839844 147.070312 261.984375 187.957031 261.984375 C 228.839844 261.984375 261.984375 228.839844 261.984375 187.957031 C 261.984375 147.070312 228.839844 113.929688 187.957031 113.929688 " clip-rule="nonzero"/></clipPath><clipPath id="91678b80fd"><path d="M 150.171875 119.960938 L 225.921875 119.960938 L 225.921875 184.460938 L 150.171875 184.460938 Z M 150.171875 119.960938 " clip-rule="nonzero"/></clipPath><clipPath id="66fc483b9e"><path d="M 225.917969 148.628906 L 225.917969 147.121094 L 224.425781 146.957031 C 224.023438 146.914062 219.714844 146.480469 214.132812 147.320312 L 214.132812 136.320312 L 212.242188 136.5625 C 209.113281 136.972656 206.210938 137.570312 203.53125 138.347656 C 200.617188 132.148438 195.800781 126.289062 189.101562 120.847656 L 188.046875 119.988281 L 186.992188 120.847656 C 180.292969 126.289062 175.472656 132.148438 172.558594 138.347656 C 169.878906 137.570312 166.976562 136.972656 163.851562 136.5625 L 161.957031 136.320312 L 161.957031 147.320312 C 156.375 146.480469 152.070312 146.914062 151.667969 146.957031 L 150.171875 147.121094 L 150.171875 148.628906 C 150.171875 161 153.488281 170.417969 160.03125 176.628906 C 165.445312 181.761719 172.894531 184.441406 181.683594 184.441406 C 182.371094 184.441406 183.074219 184.421875 183.789062 184.390625 L 186.195312 184.390625 L 185.71875 182.316406 C 184.527344 177.152344 182.558594 164.675781 188.046875 154.507812 C 193.535156 164.675781 191.5625 177.152344 190.375 182.316406 L 189.898438 184.390625 L 192.304688 184.390625 C 193.015625 184.421875 193.71875 184.441406 194.410156 184.441406 C 203.195312 184.441406 210.644531 181.761719 216.058594 176.628906 C 222.605469 170.417969 225.917969 161 225.917969 148.628906 Z M 210.785156 140.171875 L 210.785156 147.964844 C 209.429688 148.28125 208.03125 148.671875 206.628906 149.171875 C 206.328125 146.558594 205.726562 143.988281 204.824219 141.472656 C 206.691406 140.949219 208.671875 140.507812 210.785156 140.171875 Z M 165.308594 140.171875 C 167.417969 140.507812 169.402344 140.949219 171.269531 141.472656 C 170.367188 143.988281 169.761719 146.558594 169.464844 149.175781 C 168.0625 148.675781 166.664062 148.28125 165.308594 147.964844 Z M 162.335938 174.183594 C 156.757812 168.898438 153.804688 160.835938 153.542969 150.210938 C 155.28125 150.15625 158.367188 150.183594 161.957031 150.785156 L 161.957031 160.761719 C 161.957031 168.390625 169.496094 176.015625 176.917969 180.773438 C 172.015625 180.125 166.691406 178.324219 162.335938 174.183594 Z M 165.308594 160.761719 L 165.308594 151.492188 C 166.605469 151.828125 167.933594 152.242188 169.253906 152.757812 C 169.1875 162.847656 173.535156 171.460938 177.351562 177.054688 C 170.800781 172.507812 165.308594 166.089844 165.308594 160.761719 Z M 181.398438 176.898438 C 177.835938 172.09375 173.054688 163.910156 172.632812 154.316406 C 176.070312 156.171875 179.300781 158.851562 181.734375 162.699219 C 180.789062 167.839844 180.933594 172.867188 181.398438 176.898438 Z M 182.796875 158.398438 C 179.886719 154.757812 176.34375 152.242188 172.699219 150.511719 C 172.921875 147.792969 173.507812 145.121094 174.464844 142.503906 C 179.5625 144.386719 183.59375 147.074219 186.511719 150.558594 C 184.84375 153.054688 183.640625 155.710938 182.796875 158.398438 Z M 188.046875 147.234375 C 184.898438 143.894531 180.792969 141.28125 175.777344 139.410156 C 178.335938 134.121094 182.429688 129.082031 188.046875 124.328125 C 193.660156 129.082031 197.753906 134.121094 200.3125 139.410156 C 195.296875 141.28125 191.195312 143.890625 188.046875 147.234375 Z M 189.578125 150.558594 C 192.496094 147.074219 196.527344 144.386719 201.628906 142.503906 C 202.582031 145.121094 203.167969 147.792969 203.390625 150.511719 C 199.746094 152.242188 196.203125 154.757812 193.296875 158.398438 C 192.449219 155.710938 191.25 153.054688 189.578125 150.558594 Z M 194.355469 162.699219 C 196.792969 158.851562 200.019531 156.171875 203.457031 154.316406 C 203.035156 163.910156 198.253906 172.09375 194.695312 176.898438 C 195.160156 172.867188 195.300781 167.839844 194.355469 162.699219 Z M 206.835938 152.757812 C 208.160156 152.242188 209.484375 151.828125 210.785156 151.492188 L 210.785156 160.761719 C 210.785156 166.089844 205.292969 172.507812 198.738281 177.058594 C 202.558594 171.460938 206.902344 162.847656 206.835938 152.757812 Z M 213.757812 174.183594 C 209.398438 178.324219 204.078125 180.125 199.175781 180.773438 C 206.597656 176.015625 214.132812 168.390625 214.132812 160.761719 L 214.132812 150.785156 C 217.726562 150.183594 220.8125 150.15625 222.546875 150.210938 C 222.285156 160.835938 219.335938 168.898438 213.757812 174.183594 Z M 213.757812 174.183594 " clip-rule="nonzero"/></clipPath></defs><g clip-path="url(#4c1912ddd6)"><path fill="#9d7577" d="M 187.617188 271.695312 C 141.414062 271.695312 103.992188 234.015625 103.992188 188.070312 C 103.992188 142.128906 141.414062 104.445312 187.617188 104.445312 C 233.816406 104.445312 271.242188 141.871094 271.242188 188.070312 C 271.242188 234.273438 233.558594 271.695312 187.617188 271.695312 Z M 187.617188 109.609375 C 144.253906 109.609375 109.152344 144.710938 109.152344 188.070312 C 109.152344 231.433594 144.253906 266.535156 187.617188 266.535156 C 230.976562 266.535156 266.078125 231.433594 266.078125 188.070312 C 266.078125 144.710938 230.71875 109.609375 187.617188 109.609375 Z M 187.617188 109.609375 " fill-opacity="1" fill-rule="nonzero"/></g><g clip-path="url(#80f0aba8c3)"><g clip-path="url(#937af00359)"><path fill="#9d7577" d="M 113.929688 113.929688 L 261.984375 113.929688 L 261.984375 261.984375 L 113.929688 261.984375 Z M 113.929688 113.929688 " fill-opacity="1" fill-rule="nonzero"/></g></g><g clip-path="url(#91678b80fd)"><g clip-path="url(#66fc483b9e)"><path fill="#ffffff" d="M 150.171875 119.988281 L 150.171875 184.441406 L 225.917969 184.441406 L 225.917969 119.988281 Z M 150.171875 119.988281 " fill-opacity="1" fill-rule="nonzero"/></g></g><g fill="#f0efec" fill-opacity="1"><g transform="translate(126.873044, 201.749929)"><g><path d="M 7.4375 0 L 1.46875 0 L 1.46875 -10.703125 L 7.4375 -10.703125 L 7.4375 -9.609375 L 2.71875 -9.609375 L 2.71875 -6.15625 L 7.15625 -6.15625 L 7.15625 -5.046875 L 2.71875 -5.046875 L 2.71875 -1.109375 L 7.4375 -1.109375 Z M 7.4375 0 "/></g></g><g transform="translate(135.215329, 201.749929)"><g><path d="M 7.515625 -2.84375 C 7.515625 -1.90625 7.171875 -1.171875 6.484375 -0.640625 C 5.804688 -0.117188 4.878906 0.140625 3.703125 0.140625 C 2.429688 0.140625 1.457031 -0.0195312 0.78125 -0.34375 L 0.78125 -1.546875 C 1.21875 -1.359375 1.691406 -1.207031 2.203125 -1.09375 C 2.722656 -0.988281 3.238281 -0.9375 3.75 -0.9375 C 4.582031 -0.9375 5.207031 -1.09375 5.625 -1.40625 C 6.039062 -1.726562 6.25 -2.171875 6.25 -2.734375 C 6.25 -3.097656 6.175781 -3.398438 6.03125 -3.640625 C 5.882812 -3.878906 5.632812 -4.097656 5.28125 -4.296875 C 4.9375 -4.492188 4.40625 -4.722656 3.6875 -4.984375 C 2.695312 -5.335938 1.988281 -5.757812 1.5625 -6.25 C 1.132812 -6.738281 0.921875 -7.375 0.921875 -8.15625 C 0.921875 -8.976562 1.226562 -9.632812 1.84375 -10.125 C 2.46875 -10.613281 3.289062 -10.859375 4.3125 -10.859375 C 5.375 -10.859375 6.351562 -10.664062 7.25 -10.28125 L 6.859375 -9.1875 C 5.972656 -9.5625 5.113281 -9.75 4.28125 -9.75 C 3.613281 -9.75 3.09375 -9.609375 2.71875 -9.328125 C 2.351562 -9.046875 2.171875 -8.648438 2.171875 -8.140625 C 2.171875 -7.773438 2.238281 -7.472656 2.375 -7.234375 C 2.507812 -6.992188 2.738281 -6.773438 3.0625 -6.578125 C 3.394531 -6.378906 3.894531 -6.160156 4.5625 -5.921875 C 5.6875 -5.523438 6.457031 -5.097656 6.875 -4.640625 C 7.300781 -4.179688 7.515625 -3.582031 7.515625 -2.84375 Z M 7.515625 -2.84375 "/></g></g><g transform="translate(143.44775, 201.749929)"><g><path d="M 4.765625 0 L 3.515625 0 L 3.515625 -9.609375 L 0.125 -9.609375 L 0.125 -10.703125 L 8.15625 -10.703125 L 8.15625 -9.609375 L 4.765625 -9.609375 Z M 4.765625 0 "/></g></g><g transform="translate(151.746089, 201.749929)"><g><path d="M 1.46875 0 L 1.46875 -10.703125 L 2.71875 -10.703125 L 2.71875 0 Z M 1.46875 0 "/></g></g><g transform="translate(155.928218, 201.749929)"><g><path d="M 1.46875 0 L 1.46875 -10.703125 L 2.71875 -10.703125 L 2.71875 -1.125 L 7.4375 -1.125 L 7.4375 0 Z M 1.46875 0 "/></g></g><g transform="translate(163.713862, 201.749929)"><g><path d="M 10.765625 -5.375 C 10.765625 -3.65625 10.332031 -2.304688 9.46875 -1.328125 C 8.601562 -0.347656 7.398438 0.140625 5.859375 0.140625 C 4.273438 0.140625 3.054688 -0.335938 2.203125 -1.296875 C 1.347656 -2.265625 0.921875 -3.628906 0.921875 -5.390625 C 0.921875 -7.128906 1.347656 -8.476562 2.203125 -9.4375 C 3.066406 -10.394531 4.285156 -10.875 5.859375 -10.875 C 7.398438 -10.875 8.601562 -10.382812 9.46875 -9.40625 C 10.332031 -8.4375 10.765625 -7.09375 10.765625 -5.375 Z M 2.234375 -5.375 C 2.234375 -3.914062 2.539062 -2.8125 3.15625 -2.0625 C 3.78125 -1.3125 4.679688 -0.9375 5.859375 -0.9375 C 7.035156 -0.9375 7.925781 -1.3125 8.53125 -2.0625 C 9.144531 -2.8125 9.453125 -3.914062 9.453125 -5.375 C 9.453125 -6.8125 9.148438 -7.898438 8.546875 -8.640625 C 7.941406 -9.390625 7.046875 -9.765625 5.859375 -9.765625 C 4.679688 -9.765625 3.78125 -9.390625 3.15625 -8.640625 C 2.539062 -7.890625 2.234375 -6.800781 2.234375 -5.375 Z M 2.234375 -5.375 "/></g></g><g transform="translate(175.39599, 201.749929)"><g/></g><g transform="translate(179.292474, 201.749929)"><g><path d="M 8.265625 -7.59375 C 8.265625 -6.507812 7.894531 -5.675781 7.15625 -5.09375 C 6.414062 -4.507812 5.359375 -4.21875 3.984375 -4.21875 L 2.71875 -4.21875 L 2.71875 0 L 1.46875 0 L 1.46875 -10.703125 L 4.25 -10.703125 C 6.925781 -10.703125 8.265625 -9.664062 8.265625 -7.59375 Z M 2.71875 -5.28125 L 3.84375 -5.28125 C 4.945312 -5.28125 5.742188 -5.457031 6.234375 -5.8125 C 6.722656 -6.164062 6.96875 -6.738281 6.96875 -7.53125 C 6.96875 -8.238281 6.734375 -8.765625 6.265625 -9.109375 C 5.804688 -9.453125 5.085938 -9.625 4.109375 -9.625 L 2.71875 -9.625 Z M 2.71875 -5.28125 "/></g></g><g transform="translate(188.323235, 201.749929)"><g><path d="M 2.71875 -4.453125 L 2.71875 0 L 1.46875 0 L 1.46875 -10.703125 L 4.40625 -10.703125 C 5.71875 -10.703125 6.6875 -10.453125 7.3125 -9.953125 C 7.945312 -9.453125 8.265625 -8.695312 8.265625 -7.6875 C 8.265625 -6.269531 7.546875 -5.3125 6.109375 -4.8125 L 9.015625 0 L 7.546875 0 L 4.953125 -4.453125 Z M 2.71875 -5.515625 L 4.421875 -5.515625 C 5.304688 -5.515625 5.953125 -5.6875 6.359375 -6.03125 C 6.765625 -6.382812 6.96875 -6.914062 6.96875 -7.625 C 6.96875 -8.320312 6.757812 -8.828125 6.34375 -9.140625 C 5.925781 -9.453125 5.257812 -9.609375 4.34375 -9.609375 L 2.71875 -9.609375 Z M 2.71875 -5.515625 "/></g></g><g transform="translate(197.595696, 201.749929)"><g><path d="M 7.4375 0 L 1.46875 0 L 1.46875 -10.703125 L 7.4375 -10.703125 L 7.4375 -9.609375 L 2.71875 -9.609375 L 2.71875 -6.15625 L 7.15625 -6.15625 L 7.15625 -5.046875 L 2.71875 -5.046875 L 2.71875 -1.109375 L 7.4375 -1.109375 Z M 7.4375 0 "/></g></g><g transform="translate(205.93798, 201.749929)"><g><path d="M 6.21875 0 L 2.578125 -9.5 L 2.515625 -9.5 C 2.585938 -8.738281 2.625 -7.84375 2.625 -6.8125 L 2.625 0 L 1.46875 0 L 1.46875 -10.703125 L 3.34375 -10.703125 L 6.734375 -1.875 L 6.796875 -1.875 L 10.21875 -10.703125 L 12.078125 -10.703125 L 12.078125 0 L 10.828125 0 L 10.828125 -6.90625 C 10.828125 -7.695312 10.863281 -8.554688 10.9375 -9.484375 L 10.875 -9.484375 L 7.21875 0 Z M 6.21875 0 "/></g></g><g transform="translate(219.48046, 201.749929)"><g><path d="M 1.46875 0 L 1.46875 -10.703125 L 2.71875 -10.703125 L 2.71875 0 Z M 1.46875 0 "/></g></g><g transform="translate(223.662588, 201.749929)"><g><path d="M 9.5625 -10.703125 L 9.5625 -3.78125 C 9.5625 -2.5625 9.191406 -1.601562 8.453125 -0.90625 C 7.710938 -0.207031 6.695312 0.140625 5.40625 0.140625 C 4.125 0.140625 3.128906 -0.207031 2.421875 -0.90625 C 1.710938 -1.613281 1.359375 -2.582031 1.359375 -3.8125 L 1.359375 -10.703125 L 2.609375 -10.703125 L 2.609375 -3.71875 C 2.609375 -2.820312 2.851562 -2.132812 3.34375 -1.65625 C 3.832031 -1.175781 4.550781 -0.9375 5.5 -0.9375 C 6.394531 -0.9375 7.085938 -1.175781 7.578125 -1.65625 C 8.066406 -2.144531 8.3125 -2.835938 8.3125 -3.734375 L 8.3125 -10.703125 Z M 9.5625 -10.703125 "/></g></g><g transform="translate(234.582998, 201.749929)"><g><path d="M 6.21875 0 L 2.578125 -9.5 L 2.515625 -9.5 C 2.585938 -8.738281 2.625 -7.84375 2.625 -6.8125 L 2.625 0 L 1.46875 0 L 1.46875 -10.703125 L 3.34375 -10.703125 L 6.734375 -1.875 L 6.796875 -1.875 L 10.21875 -10.703125 L 12.078125 -10.703125 L 12.078125 0 L 10.828125 0 L 10.828125 -6.90625 C 10.828125 -7.695312 10.863281 -8.554688 10.9375 -9.484375 L 10.875 -9.484375 L 7.21875 0 Z M 6.21875 0 "/></g></g></g><g fill="#f0efec" fill-opacity="1"><g transform="translate(138.332779, 219.499498)"><g><path d="M 4.46875 0 L 0.890625 0 L 0.890625 -6.421875 L 4.46875 -6.421875 L 4.46875 -5.765625 L 1.625 -5.765625 L 1.625 -3.6875 L 4.296875 -3.6875 L 4.296875 -3.03125 L 1.625 -3.03125 L 1.625 -0.671875 L 4.46875 -0.671875 Z M 4.46875 0 "/></g></g><g transform="translate(143.33815, 219.499498)"><g><path d="M 0.890625 0 L 0.890625 -6.421875 L 1.625 -6.421875 L 1.625 -0.671875 L 4.46875 -0.671875 L 4.46875 0 Z M 0.890625 0 "/></g></g><g transform="translate(148.009537, 219.499498)"><g><path d="M 4.46875 0 L 0.890625 0 L 0.890625 -6.421875 L 4.46875 -6.421875 L 4.46875 -5.765625 L 1.625 -5.765625 L 1.625 -3.6875 L 4.296875 -3.6875 L 4.296875 -3.03125 L 1.625 -3.03125 L 1.625 -0.671875 L 4.46875 -0.671875 Z M 4.46875 0 "/></g></g><g transform="translate(153.014907, 219.499498)"><g><path d="M 3.703125 -3.359375 L 5.890625 -3.359375 L 5.890625 -0.234375 C 5.554688 -0.128906 5.210938 -0.0507812 4.859375 0 C 4.503906 0.0625 4.097656 0.09375 3.640625 0.09375 C 2.660156 0.09375 1.898438 -0.191406 1.359375 -0.765625 C 0.816406 -1.347656 0.546875 -2.164062 0.546875 -3.21875 C 0.546875 -3.882812 0.679688 -4.46875 0.953125 -4.96875 C 1.222656 -5.46875 1.609375 -5.847656 2.109375 -6.109375 C 2.609375 -6.378906 3.195312 -6.515625 3.875 -6.515625 C 4.5625 -6.515625 5.203125 -6.390625 5.796875 -6.140625 L 5.5 -5.484375 C 4.925781 -5.722656 4.367188 -5.84375 3.828125 -5.84375 C 3.046875 -5.84375 2.4375 -5.609375 2 -5.140625 C 1.5625 -4.679688 1.34375 -4.039062 1.34375 -3.21875 C 1.34375 -2.34375 1.550781 -1.679688 1.96875 -1.234375 C 2.394531 -0.785156 3.019531 -0.5625 3.84375 -0.5625 C 4.289062 -0.5625 4.722656 -0.613281 5.140625 -0.71875 L 5.140625 -2.703125 L 3.703125 -2.703125 Z M 3.703125 -3.359375 "/></g></g><g transform="translate(159.567153, 219.499498)"><g><path d="M 4.921875 0 L 4.125 -2.046875 L 1.546875 -2.046875 L 0.75 0 L 0 0 L 2.546875 -6.453125 L 3.171875 -6.453125 L 5.703125 0 Z M 3.890625 -2.71875 L 3.140625 -4.703125 C 3.046875 -4.953125 2.945312 -5.265625 2.84375 -5.640625 C 2.78125 -5.359375 2.6875 -5.046875 2.5625 -4.703125 L 1.8125 -2.71875 Z M 3.890625 -2.71875 "/></g></g><g transform="translate(165.262465, 219.499498)"><g><path d="M 5.90625 0 L 5.046875 0 L 1.53125 -5.390625 L 1.5 -5.390625 C 1.550781 -4.753906 1.578125 -4.175781 1.578125 -3.65625 L 1.578125 0 L 0.890625 0 L 0.890625 -6.421875 L 1.734375 -6.421875 L 5.234375 -1.0625 L 5.265625 -1.0625 C 5.253906 -1.132812 5.238281 -1.382812 5.21875 -1.8125 C 5.195312 -2.25 5.191406 -2.554688 5.203125 -2.734375 L 5.203125 -6.421875 L 5.90625 -6.421875 Z M 5.90625 0 "/></g></g><g transform="translate(172.047621, 219.499498)"><g><path d="M 3.640625 -5.84375 C 2.929688 -5.84375 2.367188 -5.609375 1.953125 -5.140625 C 1.546875 -4.671875 1.34375 -4.03125 1.34375 -3.21875 C 1.34375 -2.375 1.539062 -1.722656 1.9375 -1.265625 C 2.332031 -0.804688 2.894531 -0.578125 3.625 -0.578125 C 4.070312 -0.578125 4.582031 -0.65625 5.15625 -0.8125 L 5.15625 -0.15625 C 4.707031 0.0078125 4.160156 0.09375 3.515625 0.09375 C 2.566406 0.09375 1.832031 -0.191406 1.3125 -0.765625 C 0.800781 -1.347656 0.546875 -2.164062 0.546875 -3.21875 C 0.546875 -3.882812 0.671875 -4.460938 0.921875 -4.953125 C 1.171875 -5.453125 1.523438 -5.835938 1.984375 -6.109375 C 2.453125 -6.378906 3.003906 -6.515625 3.640625 -6.515625 C 4.316406 -6.515625 4.90625 -6.390625 5.40625 -6.140625 L 5.09375 -5.5 C 4.601562 -5.726562 4.117188 -5.84375 3.640625 -5.84375 Z M 3.640625 -5.84375 "/></g></g><g transform="translate(177.725355, 219.499498)"><g><path d="M 0.890625 0 L 0.890625 -6.421875 L 1.625 -6.421875 L 1.625 0 Z M 0.890625 0 "/></g></g><g transform="translate(180.234632, 219.499498)"><g><path d="M 4.921875 0 L 4.125 -2.046875 L 1.546875 -2.046875 L 0.75 0 L 0 0 L 2.546875 -6.453125 L 3.171875 -6.453125 L 5.703125 0 Z M 3.890625 -2.71875 L 3.140625 -4.703125 C 3.046875 -4.953125 2.945312 -5.265625 2.84375 -5.640625 C 2.78125 -5.359375 2.6875 -5.046875 2.5625 -4.703125 L 1.8125 -2.71875 Z M 3.890625 -2.71875 "/></g></g><g transform="translate(185.929944, 219.499498)"><g/></g><g transform="translate(188.267835, 219.499498)"><g><path d="M 4.515625 -1.703125 C 4.515625 -1.140625 4.304688 -0.695312 3.890625 -0.375 C 3.484375 -0.0625 2.925781 0.09375 2.21875 0.09375 C 1.457031 0.09375 0.875 -0.00390625 0.46875 -0.203125 L 0.46875 -0.921875 C 0.726562 -0.816406 1.015625 -0.726562 1.328125 -0.65625 C 1.640625 -0.59375 1.945312 -0.5625 2.25 -0.5625 C 2.75 -0.5625 3.125 -0.65625 3.375 -0.84375 C 3.625 -1.039062 3.75 -1.304688 3.75 -1.640625 C 3.75 -1.859375 3.703125 -2.039062 3.609375 -2.1875 C 3.523438 -2.332031 3.378906 -2.460938 3.171875 -2.578125 C 2.960938 -2.703125 2.644531 -2.835938 2.21875 -2.984375 C 1.613281 -3.203125 1.179688 -3.457031 0.921875 -3.75 C 0.671875 -4.039062 0.546875 -4.421875 0.546875 -4.890625 C 0.546875 -5.390625 0.734375 -5.785156 1.109375 -6.078125 C 1.484375 -6.367188 1.972656 -6.515625 2.578125 -6.515625 C 3.222656 -6.515625 3.8125 -6.398438 4.34375 -6.171875 L 4.109375 -5.515625 C 3.578125 -5.734375 3.0625 -5.84375 2.5625 -5.84375 C 2.164062 -5.84375 1.859375 -5.757812 1.640625 -5.59375 C 1.421875 -5.425781 1.3125 -5.191406 1.3125 -4.890625 C 1.3125 -4.660156 1.347656 -4.472656 1.421875 -4.328125 C 1.503906 -4.191406 1.644531 -4.0625 1.84375 -3.9375 C 2.039062 -3.820312 2.335938 -3.695312 2.734375 -3.5625 C 3.410156 -3.3125 3.875 -3.050781 4.125 -2.78125 C 4.382812 -2.507812 4.515625 -2.148438 4.515625 -1.703125 Z M 4.515625 -1.703125 "/></g></g><g transform="translate(193.207288, 219.499498)"><g><path d="M 0.890625 0 L 0.890625 -6.421875 L 1.625 -6.421875 L 1.625 0 Z M 0.890625 0 "/></g></g><g transform="translate(195.716565, 219.499498)"><g><path d="M 5.90625 0 L 5.046875 0 L 1.53125 -5.390625 L 1.5 -5.390625 C 1.550781 -4.753906 1.578125 -4.175781 1.578125 -3.65625 L 1.578125 0 L 0.890625 0 L 0.890625 -6.421875 L 1.734375 -6.421875 L 5.234375 -1.0625 L 5.265625 -1.0625 C 5.253906 -1.132812 5.238281 -1.382812 5.21875 -1.8125 C 5.195312 -2.25 5.191406 -2.554688 5.203125 -2.734375 L 5.203125 -6.421875 L 5.90625 -6.421875 Z M 5.90625 0 "/></g></g><g transform="translate(202.50172, 219.499498)"><g/></g><g transform="translate(204.839611, 219.499498)"><g><path d="M 0.890625 0 L 0.890625 -6.421875 L 1.625 -6.421875 L 1.625 -0.671875 L 4.46875 -0.671875 L 4.46875 0 Z M 0.890625 0 "/></g></g><g transform="translate(209.510997, 219.499498)"><g><path d="M 0.890625 0 L 0.890625 -6.421875 L 1.625 -6.421875 L 1.625 0 Z M 0.890625 0 "/></g></g><g transform="translate(212.020275, 219.499498)"><g><path d="M 3.734375 0 L 1.546875 -5.703125 L 1.515625 -5.703125 C 1.554688 -5.242188 1.578125 -4.707031 1.578125 -4.09375 L 1.578125 0 L 0.890625 0 L 0.890625 -6.421875 L 2.015625 -6.421875 L 4.046875 -1.125 L 4.078125 -1.125 L 6.125 -6.421875 L 7.25 -6.421875 L 7.25 0 L 6.5 0 L 6.5 -4.140625 C 6.5 -4.617188 6.519531 -5.132812 6.5625 -5.6875 L 6.53125 -5.6875 L 4.328125 0 Z M 3.734375 0 "/></g></g><g transform="translate(220.145762, 219.499498)"><g><path d="M 0.890625 0 L 0.890625 -6.421875 L 1.625 -6.421875 L 1.625 0 Z M 0.890625 0 "/></g></g><g transform="translate(222.655039, 219.499498)"><g><path d="M 2.859375 0 L 2.109375 0 L 2.109375 -5.765625 L 0.078125 -5.765625 L 0.078125 -6.421875 L 4.890625 -6.421875 L 4.890625 -5.765625 L 2.859375 -5.765625 Z M 2.859375 0 "/></g></g><g transform="translate(227.634043, 219.499498)"><g><path d="M 4.46875 0 L 0.890625 0 L 0.890625 -6.421875 L 4.46875 -6.421875 L 4.46875 -5.765625 L 1.625 -5.765625 L 1.625 -3.6875 L 4.296875 -3.6875 L 4.296875 -3.03125 L 1.625 -3.03125 L 1.625 -0.671875 L 4.46875 -0.671875 Z M 4.46875 0 "/></g></g><g transform="translate(232.639414, 219.499498)"><g><path d="M 4.515625 -1.703125 C 4.515625 -1.140625 4.304688 -0.695312 3.890625 -0.375 C 3.484375 -0.0625 2.925781 0.09375 2.21875 0.09375 C 1.457031 0.09375 0.875 -0.00390625 0.46875 -0.203125 L 0.46875 -0.921875 C 0.726562 -0.816406 1.015625 -0.726562 1.328125 -0.65625 C 1.640625 -0.59375 1.945312 -0.5625 2.25 -0.5625 C 2.75 -0.5625 3.125 -0.65625 3.375 -0.84375 C 3.625 -1.039062 3.75 -1.304688 3.75 -1.640625 C 3.75 -1.859375 3.703125 -2.039062 3.609375 -2.1875 C 3.523438 -2.332031 3.378906 -2.460938 3.171875 -2.578125 C 2.960938 -2.703125 2.644531 -2.835938 2.21875 -2.984375 C 1.613281 -3.203125 1.179688 -3.457031 0.921875 -3.75 C 0.671875 -4.039062 0.546875 -4.421875 0.546875 -4.890625 C 0.546875 -5.390625 0.734375 -5.785156 1.109375 -6.078125 C 1.484375 -6.367188 1.972656 -6.515625 2.578125 -6.515625 C 3.222656 -6.515625 3.8125 -6.398438 4.34375 -6.171875 L 4.109375 -5.515625 C 3.578125 -5.734375 3.0625 -5.84375 2.5625 -5.84375 C 2.164062 -5.84375 1.859375 -5.757812 1.640625 -5.59375 C 1.421875 -5.425781 1.3125 -5.191406 1.3125 -4.890625 C 1.3125 -4.660156 1.347656 -4.472656 1.421875 -4.328125 C 1.503906 -4.191406 1.644531 -4.0625 1.84375 -3.9375 C 2.039062 -3.820312 2.335938 -3.695312 2.734375 -3.5625 C 3.410156 -3.3125 3.875 -3.050781 4.125 -2.78125 C 4.382812 -2.507812 4.515625 -2.148438 4.515625 -1.703125 Z M 4.515625 -1.703125 "/></g></g></g></svg>